P3
8 8
255
30 141 46 30 141 46 31 141 44 31 141 44 29 140 45 28 139 45 31 142 48 
34 146 48 29 145 48 30 144 46 29 143 45 30 144 46 27 141 43 26 140 44 
28 142 47 19 150 44 24 143 43 24 143 43 24 140 39 25 141 40 23 139 40 
22 136 38 24 138 42 20 150 42 19 148 45 18 147 44 18 148 42 20 150 44 
20 147 42 19 144 40 21 146 44 26 149 43 26 146 48 25 147 46 22 147 43 
26 149 45 25 148 44 24 145 42 27 146 46 22 149 46 25 145 47 21 146 44 
20 147 42 20 150 44 21 148 43 18 145 40 21 146 44 24 142 45 51 135 50 
47 135 48 44 137 46 46 141 49 45 140 48 43 136 45 45 138 47 27 142 41 
22 141 47 19 143 45 15 146 44 18 151 46 16 151 46 16 149 44 18 149 45 
20 152 43 
