P3
8 8
255
3 129 4 7 127 3 2 133 5 0 131 3 0 131 0 0 132 1 0 133 2 2 133 5 0 128 2 
4 128 4 0 129 2 0 128 1 0 127 0 0 129 0 2 131 2 2 131 4 9 132 8 18 133 12 
27 135 15 27 135 13 27 137 14 27 137 12 28 138 15 29 137 15 23 134 13 
29 137 15 20 132 8 19 134 7 19 134 7 18 135 5 19 134 7 18 133 6 1 137 3 
5 137 2 4 138 3 2 136 1 2 136 1 1 138 0 3 137 2 2 136 1 0 134 0 1 133 0 
5 137 2 0 135 0 0 134 0 0 135 0 3 138 0 6 138 3 6 138 3 9 133 1 4 134 2 
2 133 1 0 133 0 0 135 0 2 137 0 2 136 1 5 141 5 6 136 0 12 139 8 9 139 7 
8 138 4 6 138 1 7 139 2 7 137 3 
