P3
8 8
255
0 128 0 3 132 3 7 136 7 4 134 2 1 133 0 3 138 0 6 141 2 13 144 4 13 132 6 
17 133 8 19 135 10 13 132 4 12 131 1 15 137 3 16 141 5 17 142 6 0 130 0 
3 130 1 5 132 3 2 129 0 1 131 0 5 137 0 6 141 3 1 139 2 0 132 0 0 132 0 
0 134 2 0 133 0 0 135 0 0 141 3 0 143 2 9 134 6 3 133 1 3 133 1 5 132 3 
1 131 0 2 132 0 4 136 1 1 136 0 11 130 4 0 132 0 0 131 0 1 132 2 0 130 0 
0 133 0 0 136 0 0 134 0 10 133 6 0 136 0 0 134 1 1 135 4 1 135 4 4 140 6 
5 143 8 2 140 3 27 138 10 15 132 2 13 129 2 13 127 3 12 128 3 15 131 4 
14 133 5 10 131 0 17 139 5 
