P3
8 8
255
8 159 2 15 158 6 7 158 1 12 159 6 34 150 13 19 139 5 17 139 5 18 135 3 
5 156 3 17 157 9 9 160 7 14 161 11 34 150 17 19 136 6 14 133 7 17 127 4 
9 158 4 11 161 4 3 169 1 2 163 0 21 155 6 17 135 0 8 140 3 7 137 5 5 165 3 
4 166 2 0 174 1 0 168 1 16 159 7 12 137 0 4 139 0 5 135 1 0 172 2 0 171 0 
0 176 0 0 169 0 19 159 8 14 137 0 7 138 0 7 133 0 0 170 1 0 169 0 0 174 1 
0 169 2 18 160 12 14 139 3 4 140 4 4 135 3 8 164 3 7 163 1 15 160 3 17 157 8 
40 150 17 35 130 10 22 132 11 18 127 8 11 158 5 13 161 5 24 157 6 26 153 10 
49 148 22 42 126 12 27 127 11 21 124 7 
