P3
8 8
255
5 131 0 1 142 4 8 143 5 8 138 2 3 141 2 2 129 0 21 131 6 13 132 6 8 134 1 
6 144 7 10 142 5 8 136 0 5 143 4 10 137 4 28 138 13 16 135 9 8 135 2 3 144 6 
5 140 2 3 131 0 3 141 2 11 138 5 28 140 14 13 134 5 7 137 3 0 142 3 0 136 0 
0 130 0 0 140 2 4 136 1 19 138 10 8 133 3 5 140 2 0 140 0 0 136 0 0 134 0 
0 143 4 0 133 0 13 137 5 7 139 4 7 139 2 0 138 0 0 134 0 6 136 4 3 143 8 
0 131 0 14 135 4 10 142 7 12 138 2 1 138 0 5 132 0 11 132 3 6 140 7 4 129 0 
20 135 6 14 140 7 19 139 5 10 140 4 12 133 2 14 129 2 12 137 7 12 131 3 
26 135 8 16 135 5 
