P3
8 8
255
10 146 4 13 149 7 11 147 5 8 144 2 6 142 0 6 142 0 9 145 1 8 146 1 15 146 8 
10 141 3 7 138 0 4 136 0 8 141 0 11 147 5 9 145 3 6 142 0 14 145 7 11 142 4 
12 143 5 7 138 0 7 138 0 10 143 2 7 140 0 8 141 0 23 146 4 25 148 6 34 155 14 
26 147 6 19 140 1 20 141 2 20 138 0 26 144 6 15 164 10 13 162 8 21 168 15 
19 164 11 18 162 12 23 166 16 16 159 9 19 159 10 4 172 0 5 173 0 5 176 2 
4 174 3 4 172 1 3 169 1 4 167 0 4 165 1 0 174 0 1 175 0 2 174 2 2 172 1 
2 169 1 3 166 0 4 163 0 6 162 0 11 168 1 9 169 1 8 169 3 4 170 2 2 169 3 
1 168 2 0 168 3 0 168 3 
