P3
8 8
255
6 131 5 10 130 6 13 128 7 7 134 5 8 135 6 7 134 5 5 132 3 4 131 2 37 130 16 
42 130 20 48 131 23 41 136 20 40 135 19 37 132 16 35 130 14 35 130 14 
1 134 7 9 135 10 15 137 16 3 137 6 3 137 6 1 135 4 0 134 2 0 134 2 1 135 2 
9 136 7 18 139 12 3 133 1 4 135 3 4 135 3 3 134 2 1 132 0 0 133 0 7 134 1 
15 136 7 3 130 0 5 132 0 4 134 0 2 132 0 0 132 0 2 136 1 10 136 3 19 135 8 
7 131 1 8 132 2 6 131 1 5 130 0 5 132 1 4 135 3 10 134 4 19 133 9 9 127 4 
7 125 2 5 125 1 5 125 1 6 129 4 18 135 3 22 132 7 32 135 17 18 133 6 13 132 4 
12 137 7 8 133 3 10 134 4 
