P3
8 8
255
8 186 4 2 182 0 0 182 0 3 185 2 4 183 3 5 179 2 6 177 3 5 173 2 6 186 1 
5 185 2 4 184 1 5 185 2 6 184 2 5 182 3 3 180 1 1 178 0 3 185 2 2 184 1 
3 183 0 3 182 2 3 182 2 2 181 1 0 177 0 0 176 0 4 183 3 4 183 3 4 183 3 
3 182 2 3 182 2 4 181 3 2 179 1 0 177 0 3 180 1 6 181 2 6 181 2 6 180 3 
6 180 3 8 181 4 7 180 3 6 178 4 4 177 0 7 178 1 7 178 1 6 177 1 6 177 1 
10 178 3 10 178 3 8 176 3 6 179 1 9 180 3 10 181 4 7 178 1 6 177 0 9 177 2 
10 178 3 8 176 1 4 182 0 7 185 3 8 186 4 6 181 2 4 179 0 7 182 3 7 182 3 
5 180 1 
