P3
8 8
255
75 82 75 75 82 75 74 79 73 76 78 73 78 80 75 72 77 71 70 77 70 74 81 74 
69 79 71 73 80 73 71 78 71 70 75 69 70 75 69 67 74 67 68 75 68 72 82 74 
67 77 69 73 83 75 76 83 76 73 80 73 72 79 72 70 77 70 69 79 71 74 84 76 
63 70 63 71 78 71 71 81 73 68 78 70 68 78 70 69 79 71 71 78 71 74 81 74 
66 71 67 72 78 74 72 78 74 67 76 71 70 79 74 75 81 77 76 82 78 77 82 78 
77 79 76 81 86 82 77 83 79 74 80 76 78 84 80 82 88 84 81 86 82 79 81 78 
79 81 78 84 86 83 80 85 81 75 81 77 79 85 81 83 88 84 78 80 77 71 73 70 
70 77 69 77 84 76 80 87 79 76 83 75 74 81 73 77 84 76 75 82 74 71 78 70 
