P3
8 8
255
35 106 50 36 98 47 40 88 46 42 79 45 41 74 43 40 73 44 34 73 46 33 73 46 
26 93 42 27 88 44 31 83 45 32 79 47 31 77 48 28 77 48 31 78 44 34 81 47 
28 90 41 29 86 43 32 82 45 35 80 49 34 80 51 32 81 52 35 76 46 36 76 49 
27 89 38 30 83 37 35 77 39 39 73 40 37 70 39 35 70 38 38 70 47 39 72 51 
23 91 34 30 88 37 37 87 38 40 86 39 38 85 39 36 85 38 37 88 45 38 91 47 
43 114 54 45 116 56 47 117 57 46 118 55 39 118 53 33 118 51 42 123 46 
44 128 50 26 135 42 28 139 44 24 135 40 25 131 39 27 129 45 26 123 42 
27 130 39 32 132 44 28 134 42 29 135 43 25 131 39 25 128 39 28 128 42 
26 124 41 24 130 40 26 130 41 
