P3
8 8
255
10 141 1 0 153 0 4 155 0 6 157 4 3 151 1 0 144 0 0 142 0 1 145 0 6 150 1 
0 158 0 2 160 3 5 160 4 2 157 1 0 151 0 0 147 0 0 149 0 0 154 5 4 152 2 
3 153 2 4 154 3 4 154 3 2 152 3 1 149 1 1 149 3 1 130 4 2 132 0 0 130 0 
0 131 0 0 135 0 1 137 1 0 136 0 0 133 0 0 121 8 7 122 5 4 119 0 0 120 0 
3 126 1 7 130 5 6 129 5 2 124 3 0 122 3 0 120 3 3 122 4 6 124 2 3 126 1 
0 128 0 0 127 1 0 122 3 5 114 0 0 121 5 1 120 2 3 121 0 2 125 0 0 128 1 
0 127 1 0 121 2 1 119 0 2 124 5 0 118 0 0 119 0 1 124 0 3 129 3 0 126 1 
0 120 0 
