P3
8 8
255
21 147 47 19 144 44 17 137 39 20 135 40 25 136 42 22 131 38 20 129 38 
24 133 42 18 144 44 18 143 43 17 137 39 16 134 38 21 135 40 20 134 39 
20 134 39 24 137 45 20 142 43 22 144 45 20 140 42 17 135 38 18 136 40 
22 137 42 22 140 44 26 144 48 20 138 41 26 144 47 27 143 46 22 138 41 
22 138 41 21 139 42 22 140 43 24 142 45 19 133 37 27 141 45 28 142 46 
24 140 43 23 139 42 22 138 41 21 137 40 22 138 41 18 132 36 24 140 43 
27 143 46 24 142 45 23 143 45 22 141 41 19 138 38 21 140 40 18 138 40 
21 143 44 20 145 45 19 145 45 20 147 44 17 144 41 17 142 40 23 145 44 
15 144 43 15 144 43 13 144 42 13 145 43 15 148 43 12 143 39 12 141 38 
18 148 42 
