P3
8 8
255
0 165 0 3 163 1 1 168 3 0 177 7 0 171 1 6 172 2 7 163 4 4 147 3 1 162 0 
6 161 0 2 169 3 0 183 11 0 179 6 11 159 9 2 145 1 0 129 0 4 159 0 8 154 0 
8 160 0 7 172 8 10 166 5 5 136 4 0 126 0 0 117 0 0 165 0 7 159 0 10 155 2 
10 152 4 13 139 0 0 121 0 0 118 0 0 116 1 0 173 2 5 166 8 5 151 6 1 137 1 
4 116 0 4 118 4 4 118 4 3 117 3 0 170 4 8 156 6 0 136 2 0 125 3 3 111 0 
5 120 3 4 119 2 0 117 0 12 162 5 11 138 0 0 115 0 0 116 3 11 116 15 0 117 0 
0 116 0 0 117 0 0 137 3 3 120 3 8 114 4 0 113 0 0 114 0 1 114 0 3 116 2 
5 119 5 
