P3
8 8
255
19 98 19 27 113 24 19 109 21 18 102 24 32 93 34 46 84 45 45 83 44 27 93 32 
18 99 20 14 102 16 17 107 20 25 108 28 33 99 35 38 88 37 33 86 34 25 96 30 
23 104 25 17 108 29 24 109 28 28 107 28 28 100 27 29 96 29 29 98 33 27 100 29 
27 108 29 33 120 51 38 115 45 34 104 32 25 97 23 22 100 24 26 107 31 30 103 30 
26 109 31 36 116 53 43 115 52 42 107 41 26 98 25 17 100 20 22 106 28 33 104 34 
26 107 30 32 111 45 37 109 45 33 102 37 23 99 25 21 104 22 29 112 32 36 109 38 
26 107 31 32 113 36 29 110 34 23 103 30 19 102 24 23 108 23 30 114 29 
31 109 33 25 106 30 30 114 26 29 117 33 27 116 36 20 109 25 18 104 15 
20 104 16 22 107 26 
