P3
8 8
255
14 110 20 16 118 19 24 124 28 23 120 25 22 117 25 19 109 21 15 103 17 
19 107 23 15 104 14 20 120 22 26 126 30 26 123 28 27 122 30 24 117 28 
21 111 24 25 113 29 19 103 15 17 116 23 21 121 25 20 120 24 24 121 28 
25 120 28 22 114 27 26 114 30 19 107 20 15 111 21 17 114 21 14 111 18 
19 116 23 22 119 26 22 115 26 24 114 27 14 107 18 16 110 22 16 111 21 
11 108 15 18 115 22 23 120 27 22 117 25 22 115 26 11 106 16 15 119 24 
16 117 23 13 112 19 12 109 16 14 111 18 19 115 25 18 114 25 16 109 20 
15 111 22 16 111 21 15 108 19 15 105 15 15 105 17 15 108 19 16 108 21 
17 105 19 14 102 18 16 101 18 17 102 17 17 101 15 15 101 14 14 99 14 16 104 18 
