P3
8 8
255
36 147 45 36 146 49 35 147 49 30 145 44 26 144 47 28 147 47 30 150 50 
30 153 49 22 154 42 21 153 44 20 151 45 16 149 40 23 148 44 23 149 42 
24 152 43 24 154 45 22 157 39 21 153 41 19 151 41 16 148 38 20 152 42 
19 151 39 19 153 40 21 155 40 23 156 39 24 152 43 23 149 42 22 147 43 
21 155 44 18 152 39 17 151 38 19 153 38 19 158 43 20 153 46 19 148 45 
20 149 48 24 154 48 21 151 43 19 149 40 21 151 42 24 154 45 25 150 46 
23 143 45 26 144 48 28 150 49 23 148 44 22 147 43 23 149 42 29 155 45 
30 149 45 26 140 42 30 142 44 27 148 45 25 146 43 23 146 40 23 149 42 
20 162 42 20 157 43 16 148 39 19 149 43 25 146 41 24 145 40 23 146 39 
23 149 39 
