P3
8 8
255
27 113 40 22 119 42 23 120 39 28 117 37 23 114 37 35 102 49 63 83 58 64 71 63 
29 115 42 25 119 45 23 120 41 28 115 36 22 112 38 33 102 48 64 84 59 71 78 70 
28 114 41 23 117 43 21 115 37 24 111 33 23 111 37 35 104 50 66 89 61 70 75 68 
28 111 41 22 113 43 21 113 38 25 109 32 23 111 37 36 105 50 66 89 61 77 80 73 
26 109 39 22 111 43 22 114 41 28 112 37 24 112 38 34 103 48 61 86 56 73 76 69 
26 109 39 21 110 42 23 113 43 30 112 38 26 113 42 34 103 48 60 85 55 72 77 70 
27 108 41 19 108 40 20 110 40 29 111 39 27 114 43 36 107 51 63 88 58 66 71 64 
28 110 36 21 111 37 21 110 44 28 109 42 24 112 34 36 106 46 65 87 64 68 78 69 
