P3
8 8
255
21 108 37 20 107 36 23 110 39 25 112 41 25 112 41 26 118 45 19 111 38 
16 106 34 23 108 41 23 108 41 20 107 38 21 108 37 25 113 39 23 114 44 
21 111 41 21 111 39 27 105 43 27 105 43 27 106 41 28 107 41 30 109 43 
32 106 43 31 103 40 32 104 41 29 103 42 29 103 42 30 104 43 32 106 43 
32 106 43 33 103 43 31 101 41 33 101 42 25 104 39 24 103 38 28 104 40 
30 106 41 29 105 40 24 109 42 21 106 39 22 107 40 21 109 35 19 107 33 
21 109 35 23 111 37 24 110 37 20 114 40 18 112 36 17 114 37 19 114 33 
17 112 31 19 111 34 21 113 36 22 114 39 24 112 36 22 110 34 22 113 36 
22 114 37 20 112 35 19 110 33 21 111 37 24 114 42 27 110 38 23 109 36 
24 112 38 
