P3
8 8
255
60 89 71 58 87 67 53 82 62 56 87 69 54 87 68 55 88 69 59 90 72 54 83 63 
55 93 68 62 88 75 55 83 69 57 85 70 57 88 72 54 85 69 58 87 69 59 88 70 
55 82 63 62 88 75 59 86 71 57 85 70 56 87 71 55 86 70 58 87 69 59 88 70 
58 74 63 63 87 73 62 89 74 60 87 72 57 86 68 57 88 70 56 87 69 58 87 69 
61 77 67 62 86 70 63 90 73 59 88 70 54 85 67 57 88 70 56 87 69 54 85 67 
60 84 71 59 86 67 62 91 71 56 88 67 53 85 64 55 88 67 54 87 66 53 85 64 
54 87 68 56 88 65 56 90 66 54 88 64 52 87 65 53 88 66 54 87 66 53 86 65 
54 87 66 54 93 66 51 89 64 51 89 64 51 89 64 50 88 63 54 89 67 55 88 67 
