P3
8 8
255
34 129 47 33 133 45 24 128 39 20 122 36 30 124 46 33 123 49 30 120 46 
30 123 43 30 123 42 32 130 45 30 133 44 28 128 42 29 124 43 29 119 45 
29 120 43 30 123 42 32 123 44 31 126 44 31 131 43 29 129 43 27 122 41 
28 120 43 30 123 42 29 124 40 39 127 51 30 123 42 27 125 38 27 125 40 
26 121 39 31 124 43 33 128 44 27 126 36 39 127 51 29 122 41 25 125 37 
26 126 38 25 123 38 30 125 43 32 130 43 27 128 36 31 122 43 27 125 40 
28 131 40 29 132 43 26 126 40 26 124 39 28 128 40 28 131 39 31 126 44 
30 130 42 28 133 41 27 132 40 26 128 42 26 124 39 25 125 37 28 131 39 
35 133 48 31 134 43 23 130 36 21 127 35 28 130 44 27 127 41 24 124 36 
26 131 39 
