P3
8 8
255
15 139 7 12 137 7 9 134 4 8 133 3 6 133 2 6 133 4 6 133 4 3 132 3 0 138 1 
0 137 2 0 135 0 0 134 0 0 134 0 0 133 1 0 133 0 0 133 0 7 133 0 6 131 1 
6 131 1 5 130 0 6 131 1 5 130 2 5 130 2 5 128 1 0 132 0 0 132 0 0 132 0 
0 131 0 0 131 0 0 130 0 0 128 0 0 128 0 4 134 0 4 134 2 5 135 3 7 134 3 
6 133 2 6 131 3 5 130 2 5 130 2 15 134 4 18 134 7 19 135 8 19 135 8 18 134 7 
17 133 8 16 132 7 16 132 7 0 134 0 1 135 2 2 136 3 2 136 3 1 135 2 0 135 3 
0 136 4 0 136 4 3 130 0 4 131 0 5 132 1 5 132 1 2 132 0 2 131 2 2 133 3 
4 135 5 
