P3
8 8
255
37 134 19 54 130 22 40 134 20 38 133 17 31 136 17 39 128 12 28 127 10 
29 130 12 4 139 10 24 135 14 6 139 11 3 136 8 0 140 5 7 134 5 7 132 6 8 133 7 
1 137 3 22 132 7 6 136 4 2 133 1 0 137 0 7 133 0 0 136 2 0 136 1 0 136 0 
19 130 2 4 131 0 0 130 0 0 136 0 6 130 0 8 132 0 7 131 0 5 141 5 22 131 6 
7 130 3 7 131 1 1 137 3 9 128 0 0 130 0 0 130 0 5 139 8 23 126 8 6 126 2 
7 127 3 1 132 4 8 122 0 7 130 5 9 132 7 15 136 5 28 137 12 21 130 5 11 135 3 
16 143 10 9 131 0 7 135 0 9 137 1 7 137 3 21 137 10 12 131 3 4 136 1 7 143 7 
1 131 0 3 135 0 4 136 0 
